<?xml version="1.0" encoding="utf-8"?>
<!-- Generator: Adobe Illustrator 21.0.0, SVG Export Plug-In . SVG Version: 6.00 Build 0)  -->
<svg version="1.1" id="Layer_2" xmlns="http://www.w3.org/2000/svg" xmlns:xlink="http://www.w3.org/1999/xlink" x="0px" y="0px"
	 width="145px" height="145px" viewBox="0 0 145 145" style="enable-background:new 0 0 145 145;" xml:space="preserve">
<style type="text/css">
	.st0{fill:#F2F2F2;}
	.st1{fill:#D8D8D8;}
	.st2{fill:#180293;}
	.st3{fill:#00B7CE;}
	.st4{fill:#3942BB;}
	.st5{fill:#DC5904;}
	.st6{fill:#F29101;}
	.st7{fill:none;stroke:#DC5904;stroke-width:2;stroke-linecap:round;stroke-linejoin:round;stroke-miterlimit:10;}
	.st8{opacity:0.2;fill:#FFFFFF;}
</style>
<circle class="st0" cx="72" cy="79" r="65"/>
<ellipse class="st1" cx="71.5" cy="130" rx="25" ry="10"/>
<path class="st2" d="M25.7,38.6c0,58,17.5,71.3,43.9,89.4c1.4,0.9,3.2,0.9,4.5,0c26.5-17.9,43.9-28.6,43.9-89.4
	c-16.9-13.5-46.2-23.4-46.2-23.4S41.6,25.7,25.7,38.6z"/>
<path class="st3" d="M25.7,33.6c0,58.3,17.7,71.5,44.4,89.7c1.1,0.7,2.6,0.8,3.7,0c26.7-18.1,44.4-28.6,44.4-89.7
	c-16.9-13.5-46.2-23.4-46.2-23.4S41.6,20.7,25.7,33.6z"/>
<path class="st4" d="M25.7,33.2c0.3,57,17.9,70.1,44.4,88.1c1.1,0.7,2.5,0.7,3.6,0c26.5-17.9,44.1-28.4,44.4-88.1c0-1-0.4-2-1.2-2.6
	C101.7,19.2,78.3,10.5,73,8.6c-0.7-0.2-1.5-0.2-2.2,0c-5.4,1.9-29.6,11-43.9,22C26.1,31.3,25.7,32.2,25.7,33.2z"/>
<path class="st5" d="M36.8,40.7c0,45.3,14,54.8,35.1,69.1C93,95.5,107,88.2,107,40.7C94.1,30.5,71.9,22.9,71.9,22.9
	S48.9,30.9,36.8,40.7z"/>
<path class="st6" d="M36.8,37.7c0,45.3,14,54.8,35.1,69.1C93,92.5,107,85.2,107,37.7C94.1,27.5,71.9,19.9,71.9,19.9
	S48.9,27.9,36.8,37.7z"/>
<g>
	<path class="st7" d="M90.3,67.9c0.3,2.6-0.2,4.8-1.7,6.3c-4.1,4.1-14.1,0.8-22.3-7.4c-8.2-8.2-11.6-18.2-7.4-22.3
		c1.6-1.6,4.1-2.1,7-1.6"/>
	<path class="st7" d="M92.5,76.2c-0.3,1.8-1,3.3-2.1,4.5c-5.3,5.3-18,1-28.6-9.5S47,47.9,52.3,42.7c1.3-1.3,3.1-2,5.2-2.2"/>
	<path class="st7" d="M84.3,54.3c3.9,5.2,5.2,10.6,2.7,13.1c-3,3-10.1,0.6-16-5.3s-8.3-13.1-5.3-16c2.4-2.4,7.5-1.3,12.5,2.3"/>
	<line class="st7" x1="90.1" y1="42.9" x2="76" y2="57"/>
	<line class="st7" x1="64.5" y1="68.5" x2="54.5" y2="78.5"/>
</g>
<path class="st8" d="M39.4,39.4c0,0.1,0,0.3,0,0.4c9.5,5.8,20.6,9.1,32.6,9.1c11.8,0,22.9-3.3,32.4-9c0-0.2,0-0.4,0-0.5
	C92.5,29.9,71.9,23,71.9,23S50.6,30.3,39.4,39.4z"/>
</svg>
