<?xml version="1.0" encoding="utf-8"?>
<!-- Generator: Adobe Illustrator 21.0.0, SVG Export Plug-In . SVG Version: 6.00 Build 0)  -->
<svg version="1.1" id="Layer_3" xmlns="http://www.w3.org/2000/svg" xmlns:xlink="http://www.w3.org/1999/xlink" x="0px" y="0px"
	 width="145px" height="145px" viewBox="0 0 145 145" style="enable-background:new 0 0 145 145;" xml:space="preserve">
<style type="text/css">
	.st0{fill:#F2F2F2;}
	.st1{fill:#D8D8D8;}
	.st2{fill:#3942BB;}
	.st3{fill:#00B7CE;}
	.st4{fill:#180293;}
	.st5{fill:#DC5904;}
	.st6{fill:#F29101;}
</style>
<circle class="st0" cx="72" cy="79" r="65"/>
<ellipse class="st1" cx="72.5" cy="129" rx="25" ry="10"/>
<g>
	<path class="st2" d="M51.1,44.7l46,46c2.8,2.8,7.5,0.8,7.5-3.1V37.7l-50.3-0.5C50.4,37.2,48.4,41.9,51.1,44.7z"/>
	<path class="st2" d="M85.6,77.4L64.9,56.7l36.3-36.3c4.3-4.3,10.2-6.8,16.4-6.8h11.1v11.1c0,6.2-2.4,12-6.8,16.4L85.6,77.4z"/>
	
		<rect x="65.7" y="50.1" transform="matrix(0.7071 0.7071 -0.7071 0.7071 63.1077 -33.3866)" class="st2" width="12.2" height="18.7"/>
	
		<rect x="77.3" y="61.6" transform="matrix(0.7071 0.7071 -0.7071 0.7071 74.6278 -38.1584)" class="st2" width="12.2" height="18.7"/>
	<path class="st3" d="M78,72.4l-8.1-8.1L87.2,47c1.7-1.7,4-2.6,6.4-2.6h4.3v4.3c0,2.4-1,4.7-2.6,6.4L78,72.4z"/>
</g>
<polygon class="st4" points="60.6,54.1 84.2,37.6 64.6,58.1 "/>
<polygon class="st4" points="88.8,82.4 104.5,58.5 84.8,78.4 "/>
<path class="st5" d="M32.8,142.6c6.3,1.2,10.1-1.4,11.6-2.3c1.2-0.8,0.4-1.3-0.5-0.9c-4.6,1.9-11.8-2-8.5-9.6
	C38.3,123.2,22.2,140.6,32.8,142.6z"/>
<path class="st6" d="M54.5,70.5c-13.5,13.5-51,65-22,72c-0.4-0.6,2.3-0.7,1.4-1.1c-11.3-5.4,27.6-40.8,39.6-51.9
	c6.9-6.3-1.5-12.5-6-8c-5,5-5.8,7.2-12,12c-4.5,3.5-8.3,0.6-5-4c2.5-3.5,7.5-9.5,11-13C66,72,60,65,54.5,70.5z"/>
<g>
	<path class="st6" d="M27.3,136.2c1.7,2.6,4.3,4.7,7.4,5.4c1.6,0.4,3.2,0.4,4.9,0.1c1.7-0.3,3.3-0.8,4.9-1.4c-1.5,0.9-3,1.6-4.7,2.2
		c-1.7,0.5-3.5,0.8-5.3,0.6c-1.8-0.1-3.6-0.7-5.3-1.6c-1.6-0.9-3.1-2.1-4.3-3.5L27.3,136.2z"/>
</g>
<path class="st5" d="M50.5,89.5c-4.6,5.9-15.2,20.5-18.8,27c5.1-7.8,15.6-17.8,10.5-9.6c6-5.5,11-10.5,14.7-14.4
	C51.5,97.4,46.8,94.3,50.5,89.5z"/>
</svg>
