<?xml version="1.0" encoding="utf-8"?>
<!-- Generator: Adobe Illustrator 21.0.0, SVG Export Plug-In . SVG Version: 6.00 Build 0)  -->
<svg version="1.1" id="Layer_2" xmlns="http://www.w3.org/2000/svg" xmlns:xlink="http://www.w3.org/1999/xlink" x="0px" y="0px"
	 width="145px" height="145px" viewBox="0 0 145 145" style="enable-background:new 0 0 145 145;" xml:space="preserve">
<style type="text/css">
	.st0{fill:#F2F2F2;}
	.st1{fill:#D8D8D8;}
	.st2{fill:#180293;}
	.st3{fill:#3942BB;}
	.st4{fill:none;stroke:#F29101;stroke-width:5;stroke-linecap:round;stroke-linejoin:round;stroke-miterlimit:10;}
	.st5{fill:none;stroke:#180293;stroke-width:5;stroke-linecap:round;stroke-linejoin:round;stroke-miterlimit:10;}
	.st6{fill:#DC5904;}
	.st7{fill:#FFFFFF;}
	.st8{fill:none;stroke:#00B7CE;stroke-width:5;stroke-linecap:round;stroke-linejoin:round;stroke-miterlimit:10;}
</style>
<circle class="st0" cx="72" cy="79" r="65"/>
<ellipse class="st1" cx="72" cy="129" rx="25" ry="10"/>
<path class="st2" d="M102.5,123h-64c-10.8,0-19.5-8.7-19.5-19.5V62.3c0-2.4,1.9-4.3,4.3-4.3h94.5c2.4,0,4.3,1.9,4.3,4.3v41.2
	C122,114.3,113.3,123,102.5,123z"/>
<path class="st3" d="M117.7,106H23.3c-2.4,0-4.3-1.9-4.3-4.3V58c0-9.9,8.1-18,18-18h67c9.9,0,18,8.1,18,18v43.7
	C122,104.1,120.1,106,117.7,106z"/>
<line class="st4" x1="45.5" y1="56.5" x2="45.5" y2="90.5"/>
<line class="st5" x1="45.5" y1="56.5" x2="45.5" y2="80.5"/>
<line class="st4" x1="70.5" y1="56.5" x2="70.5" y2="90.5"/>
<line class="st4" x1="95.5" y1="56.5" x2="95.5" y2="90.5"/>
<line class="st5" x1="95.5" y1="56.5" x2="95.5" y2="76.5"/>
<circle class="st6" cx="45.5" cy="81.5" r="6.5"/>
<circle class="st6" cx="70.5" cy="59.5" r="6.5"/>
<circle class="st6" cx="95.5" cy="72.5" r="6.5"/>
<circle class="st7" cx="45.5" cy="78.5" r="6.5"/>
<circle class="st7" cx="70.5" cy="56.5" r="6.5"/>
<circle class="st7" cx="95.5" cy="69.5" r="6.5"/>
<path class="st4" d="M59.5,114.5c0,13,13,11,13,21"/>
<path class="st8" d="M81.5,114.5c0,13-13,11-13,21"/>
<path class="st2" d="M48.2,110.5c12.4-12.4,32.4-12.4,44.7,0"/>
</svg>
