<?xml version="1.0" encoding="utf-8"?>
<!-- Generator: Adobe Illustrator 21.0.0, SVG Export Plug-In . SVG Version: 6.00 Build 0)  -->
<svg version="1.1" id="Layer_3" xmlns="http://www.w3.org/2000/svg" xmlns:xlink="http://www.w3.org/1999/xlink" x="0px" y="0px"
	 width="145px" height="145px" viewBox="0 0 145 145" style="enable-background:new 0 0 145 145;" xml:space="preserve">
<style type="text/css">
	.st0{fill:#F2F2F2;}
	.st1{fill:#D8D8D8;}
	.st2{fill:#180293;}
	.st3{fill:#3942BB;}
	.st4{fill:none;stroke:#180293;stroke-width:5.5384;stroke-miterlimit:10;}
	.st5{fill:#F29101;}
	.st6{fill:none;stroke:#3942BB;stroke-width:5.5384;stroke-linecap:round;stroke-linejoin:round;stroke-miterlimit:10;}
	.st7{opacity:0.2;fill:#FFFFFF;}
	.st8{fill:none;stroke:#00B7CE;stroke-width:3;stroke-linecap:round;stroke-linejoin:round;stroke-miterlimit:10;}
</style>
<circle class="st0" cx="72" cy="79" r="65"/>
<ellipse class="st1" cx="71.5" cy="130" rx="25" ry="10"/>
<path class="st2" d="M116.3,71.5C116.3,47.5,96.5,28,72,28S27.7,47.5,27.7,71.5c0,0.3,0,0.5,0,0.8h0v33.2c0,1.4,0.9,2.8,2.2,3.4
	c4.9,2.2,18.1,6,41.9,6c24.1,0,37.4-3.8,42.3-6.1c1.3-0.6,2.2-1.9,2.2-3.4V72.4h0C116.3,72.1,116.3,71.8,116.3,71.5z"/>
<path class="st3" d="M119.1,61.3c0-26.1-21.1-47.2-47.1-47.2S24.9,35.3,24.9,61.3c0,0.3,0,0.6,0,0.9h0v36c0,1.6,0.9,3,2.3,3.6
	c5.2,2.4,19.3,7.5,44.5,7.5c25.6,0,39.7-5.1,45-7.5c1.4-0.7,2.3-2.1,2.3-3.6v-36h0C119.1,61.9,119.1,61.6,119.1,61.3z"/>
<path class="st4" d="M110.4,69.6c0,14.8-13.8,21.8-30.7,21.8"/>
<path class="st5" d="M71.7,35.4c-9,0-16.2,0.8-21.7,1.9c-8.7,1.7-14.9,9.3-14.9,18.1v19c0,8.8,6.2,16.4,14.9,18.1
	c5.5,1.1,12.6,1.9,21.4,1.9c9,0,16.2-0.8,21.7-1.9c8.7-1.7,14.9-9.3,14.9-18.1v-19c0-8.8-6.2-16.4-14.9-18.1
	C87.6,36.2,80.6,35.4,71.7,35.4z"/>
<path class="st3" d="M29.5,84.4h-3.8c-4,0-7.3-3.3-7.3-7.3V64.9c0-4,3.3-7.3,7.3-7.3h3.8V84.4z"/>
<path class="st3" d="M114.5,57.6h3.8c4,0,7.3,3.3,7.3,7.3v12.2c0,4-3.3,7.3-7.3,7.3h-3.8V57.6z"/>
<path class="st6" d="M111.3,64.1c0,12.5-13.8,22.7-30.7,22.7"/>
<path class="st7" d="M72.9,61.3c14.5,0,26.7-6.5,29.7-15.2c-2.5-2.5-5.8-4.4-9.5-5.1c-5.5-1.1-12.6-1.9-21.4-1.9
	c-9,0-16.2,0.8-21.7,1.9c-2.7,0.5-5.2,1.6-7.3,3.2C44.5,53.8,57.3,61.3,72.9,61.3z"/>
<path class="st7" d="M50,31.8c5.5-1.1,12.7-1.9,21.7-1.9c8.8,0,15.9,0.8,21.4,1.9c1.3,0.2,2.4,0.6,3.6,1.1
	C94.6,25.6,84.6,20,72.5,20c-11.7,0-21.5,5.2-24,12.1C49,32,49.5,31.9,50,31.8z"/>
<line class="st8" x1="23.5" y1="58.5" x2="23.5" y2="65.5"/>
<line class="st8" x1="120.5" y1="58.5" x2="120.5" y2="65.5"/>
</svg>
