<svg width="285" height="75" viewBox="0 0 285 75" fill="none" xmlns="http://www.w3.org/2000/svg">
<path fill-rule="evenodd" clip-rule="evenodd" d="M272.313 22.9561H263.158C263.242 23.2902 263.191 23.758 263.041 24.3595L255.375 52.0104C255.191 52.6119 254.973 53.063 254.706 53.4139H263.878C263.811 53.0463 263.844 52.5785 263.995 52.0104L271.66 24.3595C271.844 23.7413 272.062 23.2735 272.313 22.9561ZM260.781 22.9561C260.53 23.2735 260.296 23.7413 260.112 24.3595L252.446 52.0104C252.296 52.5785 252.262 53.0463 252.346 53.4139H243.174C243.442 53.063 243.659 52.6119 243.843 52.0104L251.509 24.3595C251.66 23.758 251.693 23.2902 251.626 22.9561H260.781ZM232.847 38.2602C233.399 36.3555 233.935 34.9855 234.47 34.1668C235.006 33.3482 235.609 32.9305 236.261 32.9305C237.232 32.9305 237.6 33.699 237.366 35.2695C237.249 35.9879 237.048 36.9904 236.747 38.2769H232.847V38.2602ZM241.015 51.7932L241.567 47.0149C240.178 48.1009 238.939 48.8861 237.868 49.354C236.78 49.8218 235.692 50.0557 234.571 50.0557C233.516 50.0557 232.68 49.7883 232.027 49.237C231.391 48.6856 231.056 47.9004 230.972 46.9147C230.889 45.8454 231.106 44.3083 231.625 42.27H244.73C244.831 41.9024 244.898 41.6685 244.931 41.5683C245.651 38.9285 245.952 36.7899 245.835 35.1526C245.701 33.4985 245.115 32.1452 244.078 31.0425C242.873 29.756 240.814 29.1044 237.868 29.1044C234.32 29.1044 231.274 30.157 228.73 32.2622C225.884 34.6346 223.893 37.8425 222.771 41.9191C221.349 46.9982 222.286 50.5569 225.583 52.5451C227.022 53.4306 229.098 53.865 231.809 53.865C233.516 53.865 235.006 53.7313 236.278 53.4473C237.533 53.1633 239.107 52.6119 241.015 51.7932ZM201.984 42.5206L208.193 31.243C208.361 30.9423 208.478 30.6917 208.528 30.4745C208.561 30.3408 208.578 30.1403 208.595 29.8396H216.846C216.696 30.0735 216.595 30.274 216.562 30.441C216.512 30.6917 216.478 30.959 216.461 31.243L215.976 42.5206L222.169 31.243C222.353 30.8922 222.47 30.6582 222.52 30.5079C222.554 30.3742 222.57 30.1403 222.57 29.8396H227.123C226.755 30.1904 226.42 30.6582 226.085 31.243L214.771 52.0272C214.587 52.378 214.47 52.6286 214.419 52.7623C214.369 52.8959 214.369 53.1298 214.369 53.4306H206.352C206.503 53.1298 206.603 52.9127 206.637 52.7623C206.687 52.5785 206.72 52.3279 206.737 52.0272L207.189 40.2149L200.762 52.0272C200.528 52.495 200.36 52.8625 200.276 53.1466C200.26 53.2134 200.243 53.2969 200.21 53.4306H192.728C192.778 53.2802 192.812 53.1633 192.828 53.0964C192.912 52.8124 192.946 52.4281 192.962 51.977L193.247 31.243C193.247 30.6415 193.163 30.1737 192.996 29.8396H202.787C202.62 30.1403 202.519 30.3575 202.486 30.5079C202.452 30.6582 202.419 30.9089 202.402 31.243L201.984 42.5206ZM181.732 34.1C181.38 34.0833 181.012 34.2337 180.627 34.5344C180.242 34.8518 179.941 35.2361 179.723 35.7206C179.405 36.4056 178.769 38.4105 177.799 41.6852C176.978 44.893 176.51 46.8645 176.426 47.6331C176.376 48.1176 176.443 48.5186 176.644 48.8193C176.844 49.12 177.129 49.2704 177.497 49.2704C178.183 49.2704 178.836 48.7191 179.405 47.6331C179.991 46.5304 180.677 44.5756 181.447 41.7687C182.251 38.8783 182.669 36.8734 182.702 35.8042C182.769 34.7015 182.435 34.1334 181.732 34.1ZM175.204 52.0773L173.497 58.2256C173.33 58.8438 173.296 59.3116 173.38 59.6291H164.208C164.476 59.2615 164.71 58.8104 164.877 58.2256L172.359 31.2263C172.51 30.6582 172.543 30.1904 172.476 29.8229H181.146L180.661 31.5772C182.251 29.9398 184.159 29.1212 186.368 29.1212C187.841 29.1212 189.012 29.5556 189.916 30.4243C191.874 32.3123 192.075 36.0882 190.502 41.7687C189.414 45.6616 187.924 48.6355 185.983 50.6906C185.046 51.6763 183.958 52.4615 182.736 53.0129C181.497 53.5642 180.225 53.8483 178.937 53.8483C177.112 53.8483 175.874 53.2468 175.204 52.0773ZM155.605 38.2602C156.157 36.3555 156.71 34.9855 157.229 34.1668C157.764 33.3482 158.367 32.9305 159.036 32.9305C160.007 32.9305 160.375 33.699 160.141 35.2695C160.024 35.9879 159.823 36.9904 159.522 38.2769H155.605V38.2602ZM163.773 51.7932L164.325 47.0149C162.936 48.1009 161.714 48.8861 160.626 49.354C159.538 49.8218 158.45 50.0557 157.329 50.0557C156.275 50.0557 155.421 49.7883 154.785 49.237C154.149 48.6856 153.797 47.9004 153.73 46.9147C153.647 45.8454 153.864 44.3083 154.383 42.27H167.488C167.589 41.9024 167.656 41.6685 167.689 41.5683C168.426 38.9285 168.727 36.7899 168.593 35.1526C168.459 33.4985 167.873 32.1452 166.836 31.0425C165.631 29.756 163.572 29.1044 160.626 29.1044C157.078 29.1044 154.032 30.157 151.488 32.2622C148.642 34.6346 146.651 37.8425 145.529 41.9191C144.123 46.9982 145.061 50.5569 148.341 52.5451C149.781 53.4306 151.839 53.865 154.567 53.865C156.275 53.865 157.764 53.7313 159.036 53.4473C160.291 53.1633 161.865 52.6119 163.773 51.7932ZM132.525 38.2602H136.441C136.742 36.9737 136.943 35.9712 137.06 35.2528C137.311 33.6823 136.926 32.9138 135.956 32.9138C135.286 32.9138 134.7 33.3315 134.165 34.1501C133.629 34.9855 133.077 36.3555 132.525 38.2602ZM140.709 51.7932C138.801 52.6119 137.211 53.1633 135.939 53.4473C134.667 53.7313 133.177 53.865 131.47 53.865C128.759 53.865 126.683 53.4139 125.261 52.5451C121.98 50.5402 121.043 46.9982 122.449 41.9191C123.57 37.8592 125.562 34.6346 128.407 32.2622C130.951 30.157 133.997 29.1044 137.546 29.1044C140.475 29.1044 142.55 29.756 143.755 31.0425C144.793 32.1452 145.379 33.4985 145.513 35.1526C145.646 36.8066 145.345 38.9452 144.609 41.5683C144.575 41.6685 144.525 41.9024 144.408 42.27H131.303C130.784 44.2916 130.566 45.8454 130.65 46.9147C130.717 47.9004 131.068 48.6856 131.704 49.237C132.34 49.7883 133.194 50.0557 134.248 50.0557C135.353 50.0557 136.458 49.8218 137.546 49.354C138.634 48.8861 139.855 48.1009 141.245 47.0149L140.709 51.7932ZM125.863 22.9561H116.691C116.758 23.2902 116.725 23.758 116.574 24.3595L108.908 52.0104C108.724 52.6119 108.507 53.063 108.239 53.4139H117.411C117.344 53.0463 117.377 52.5785 117.528 52.0104L125.194 24.3595C125.395 23.7413 125.612 23.2735 125.863 22.9561ZM87.3175 51.6095L90.2632 45.9289C91.0164 46.7476 91.5855 47.3156 91.9704 47.6498C93.2257 48.7692 94.6651 49.3205 96.2719 49.3205C97.2761 49.3205 98.113 49.0866 98.8327 48.6021C99.636 48.0842 100.155 47.3825 100.406 46.497C100.674 45.5446 100.456 44.8095 99.7867 44.3083C99.5021 44.1078 98.364 43.523 96.389 42.554C94.2299 41.5014 92.9077 40.3152 92.4056 38.9786C91.8867 37.5752 91.87 35.9712 92.3721 34.1668C92.891 32.2956 93.845 30.5914 95.2174 29.071C97.8619 26.1472 101.427 24.677 105.929 24.677C108.54 24.677 110.934 25.2617 113.143 26.4312L110.465 31.7944C108.523 29.8396 106.699 28.8705 104.992 28.8705C104.205 28.8705 103.502 29.1045 102.883 29.5556C102.264 30.0067 101.845 30.5914 101.645 31.3098C101.444 32.0617 101.544 32.6297 101.946 32.9806C102.364 33.3482 103.686 34.0165 105.912 35.0356C108.205 36.0715 109.578 37.3413 110.013 38.8616C110.398 40.1314 110.348 41.6351 109.862 43.3727C109.26 45.5112 108.272 47.4326 106.883 49.1368C104.222 52.3446 100.523 53.9485 95.7363 53.9485C94.0793 53.9485 92.6399 53.7814 91.4014 53.4306C90.1628 53.0797 88.7904 52.4783 87.3175 51.6095Z" fill="#0574BC"/>
<path fill-rule="evenodd" clip-rule="evenodd" d="M214.771 16.9915H217.332L218.102 14.452L218.905 16.9915H221.449L219.39 18.5453L220.177 21.0849L218.102 19.5144L216.043 21.0849L216.83 18.5453L214.771 16.9915Z" fill="#0574BC"/>
<path fill-rule="evenodd" clip-rule="evenodd" d="M202.386 11.428H206.051L207.189 7.80243L208.31 11.428H211.959L209.013 13.6668L210.152 17.2923L207.189 15.0535L204.227 17.2923L205.348 13.6668L202.386 11.428Z" fill="#0574BC"/>
<path fill-rule="evenodd" clip-rule="evenodd" d="M192.996 21.0515H195.908L196.795 18.1778L197.699 21.0515H200.595L198.251 22.8225L199.138 25.6962L196.795 23.9252L194.452 25.6962L195.339 22.8225L192.996 21.0515Z" fill="#0574BC"/>
<path d="M49.7932 25.2283C50.5965 25.7797 51.3665 26.3644 52.1196 26.9492C62.1954 22.104 68.84 15.9723 67.7856 12.0294C66.5638 7.46822 53.8436 6.49918 39.5166 10.3419C29.7421 12.965 21.5576 16.4736 17.9424 20.7006C23.3652 14.5856 37.2738 16.4736 49.7932 25.2283Z" fill="#7097CF"/>
<path d="M65.593 48.6857C65.9612 50.0557 65.8608 51.3923 65.3587 52.6621C68.1203 45.8788 62.6305 35.1526 52.1196 26.9325C50.7137 27.6175 49.2408 28.2691 47.7177 28.8706C33.9598 34.4342 18.2436 34.7015 16.1849 27.0328C15.8335 25.7129 15.9171 24.4264 16.4025 23.19C13.7078 29.873 18.9968 40.3486 29.173 48.5019C30.445 47.9004 31.7672 47.3324 33.1229 46.781C47.2826 41.0504 63.4674 40.783 65.593 48.6857Z" fill="#EE3425"/>
<path d="M31.968 50.607C30.9973 49.922 30.06 49.2203 29.1562 48.5019C18.4611 53.5475 11.3144 60.0133 12.4358 64.1401C13.6911 68.8349 26.7962 69.8373 41.5417 65.8777C52.2367 63.0207 61.0739 59.1111 64.3879 54.3996C59.4504 61.3833 44.956 59.6792 31.968 50.607Z" fill="#FDB816"/>
<path d="M16.185 27.0327C18.2437 34.7015 33.9598 34.4341 47.7178 28.8705C49.2409 28.2524 50.7137 27.6008 52.1196 26.9325C51.3665 26.3477 50.5966 25.7797 49.7932 25.2116C37.2905 16.4736 23.3652 14.5856 17.9424 20.6839C17.5072 21.1851 16.7875 22.1541 16.4026 23.19C15.9172 24.4264 15.8168 25.7128 16.185 27.0327Z" fill="#8A4F9F"/>
<path d="M65.3585 52.662C65.8774 51.3923 65.9611 50.0557 65.5929 48.6857C63.4672 40.783 47.2824 41.0503 33.1228 46.781C31.7671 47.3323 30.4449 47.9004 29.1729 48.5019C30.0767 49.2203 31.0139 49.922 31.9847 50.607C44.956 59.6792 59.4503 61.3666 64.4045 54.4163C64.4213 54.3829 64.9568 53.6478 65.3585 52.662Z" fill="#F58220"/>
</svg>
